<?xml version="1.0" encoding="utf-8"?>
<svg xmlns="http://www.w3.org/2000/svg" x="0px" y="0px" width="250px" height="82.8px">
<path fill="#002856" d="M77,18.2c1.2,0,2.8,0.1,4.5,0.1c2.2,0,3.2-0.1,4.1-0.1c0.1,0.1,0.2,0.8,0,0.9c-0.8,0.2-1.3,0.3-1.7,0.4
	c-0.5,0.2-0.6,0.6-0.5,1.3c0.7,2.9,2.5,9.5,3.7,13.5c0,0,0.1,0,0.1,0c1.5-4,4.2-11.8,5.1-15.1c0.5,0.1,1.4,0.1,1.8,0
	c0.8,3,4.2,12.5,5.3,15.4c0,0,0.1,0,0.2,0c0.9-2.8,3.1-10.1,3.8-12.9c0.3-1.2,0.3-1.9-0.7-2.2c-0.5-0.1-1-0.2-2-0.4
	c-0.2-0.1-0.1-0.9,0-0.9c0.8,0,2.5,0.1,3.9,0.1c2.2,0,3.2-0.1,3.9-0.1c0.1,0.1,0.1,0.8,0,0.9c-0.7,0.1-1.1,0.2-1.5,0.4
	c-0.8,0.3-1.3,0.7-1.8,2.1c-1.5,4-4.5,13.6-5.7,17.7c-0.3,0-1.4,0-1.7,0c-0.8-2.8-4.1-12.2-5.3-15.6c0,0-0.1,0-0.1,0.1
	c-1.5,4.2-4.3,12-5.4,15.5c-0.3,0-1.4,0-1.7,0c-1-4.2-3.8-14.3-4.8-17.6c-0.5-1.5-0.8-2-1.7-2.2c-0.6-0.2-0.9-0.2-1.8-0.4
	C76.8,19.1,76.8,18.3,77,18.2 M110.8,18.2c-0.1,0.1-0.2,0.8,0,0.9c0.9,0.1,1.5,0.2,2,0.4c0.7,0.2,0.9,0.5,0.9,1.5
	c0,0.6,0.1,4.2,0.1,7.5c0,2.9,0,5.8,0,7c-0.1,1.6-0.2,2.2-1.2,2.5c-0.5,0.1-1,0.2-1.8,0.3c-0.1,0.1-0.1,0.8,0,1
	c0.7,0,2.5-0.1,4.5-0.1c2.2,0,3.8,0.1,4.4,0.1c0.1-0.1,0.3-0.8,0.1-1c-1-0.1-1.5-0.3-2-0.4c-0.8-0.2-1-0.7-1-1.9c0-0.7,0-4.6,0-6.5
	c0,0,0-0.2,0.1-0.2c0.3,0,3.1,0,5.8,0c1.9,0,4.7,0,5.4,0c0.1,0,0.2,0.1,0.2,0.2c0,2.1,0,5.8,0,6.8c-0.1,1-0.3,1.4-0.9,1.6
	c-0.5,0.2-1,0.2-1.9,0.3c-0.1,0.2-0.1,0.8,0,1c0.9,0,2.6-0.1,4.3-0.1c1.7,0,3.5,0.1,4.5,0.1c0.2-0.1,0.2-0.8,0.1-1
	c-1-0.1-1.7-0.2-2.2-0.4c-0.6-0.2-0.8-0.6-0.9-1.5c-0.1-1.2-0.1-4.9-0.1-7.8c0-4,0-6,0.1-7.2c0.1-1.2,0.2-1.6,0.9-1.8
	c0.4-0.1,1-0.2,1.8-0.3c0.1-0.1,0.1-0.8,0-0.9c-0.5,0-2.5,0.1-4.2,0.1c-1.8,0-3.5-0.1-4.2-0.1c-0.2,0.2-0.2,0.8,0,1
	c0.9,0.1,1.5,0.2,2,0.4c0.5,0.2,0.6,0.6,0.7,1.1c0.1,1.2,0.1,5,0.1,6.8c0,0.1-0.1,0.2-0.2,0.2c-0.3,0-1.6,0-5.3,0.1
	c-4.9,0-5.5,0-5.8-0.1c-0.1,0-0.2-0.2-0.2-0.3c0-3.3,0-5,0-6.3c0-1.1,0.3-1.4,0.9-1.6c0.4-0.1,1-0.2,1.6-0.3c0.1-0.1,0.1-0.8,0-0.9
	c-0.9,0-2,0.1-4.2,0.1C113.3,18.3,111.6,18.2,110.8,18.2 M138.4,18.2c-0.1,0.2-0.2,0.8,0,0.9c0.8,0.1,1.4,0.2,1.8,0.3
	c0.8,0.2,0.9,0.5,1,1.7c0,0.6,0,3.6,0,6.7c0,3.8,0,7.5,0,8.2c-0.1,1.2-0.3,1.6-1.2,1.8c-0.6,0.2-1.5,0.2-2.6,0.3
	c-0.1,0.2-0.1,0.9,0,1c1.4,0,3.1-0.1,5.3-0.1c3.5,0,6,0.1,8.8,0.1c1.7,0,1.9-0.2,2.1-0.5c0.5-1,1.3-3.6,1.4-4.6
	c-0.1-0.2-0.8-0.4-1-0.4c-0.4,1-1.2,2.4-1.7,3c-0.6,0.8-1,1.1-2.5,1.1c-1.4,0-4.3,0-5-0.2c-0.4-0.1-0.8-0.6-0.8-1.3
	c-0.1-1.6-0.1-5.2-0.1-6.8c0-0.1,0.1-0.3,0.2-0.3c1.3,0,4.1,0,5.1,0.1c0.8,0.1,1,0.5,1.2,1c0.1,0.4,0.2,0.7,0.3,1.4
	c0.2,0.2,1,0.1,1.2,0c0-0.8-0.1-1.8-0.1-3.1c0-1.2,0.1-2.5,0.2-3.2c-0.1-0.2-0.9-0.2-1.1-0.1c-0.1,0.5-0.2,1-0.4,1.4
	c-0.2,0.5-0.4,0.9-1.2,1c-1.2,0.1-3.8,0.1-5.2,0.1c-0.1,0-0.2-0.1-0.2-0.2c0-1.5,0-5.3,0-7.2c0-0.2,0.2-0.6,0.4-0.6
	c0.4,0,4.5,0,5.2,0c1.1,0.1,1.4,0.5,1.7,1.3c0.1,0.5,0.3,1.1,0.4,2.1c0.1,0.1,0.9,0.1,1-0.1c0.1-1.4,0.3-3.6,0.6-4.6
	c0,0-0.1-0.1-0.1-0.2c-0.7,0.1-2.5,0.1-3.8,0.1h-6.7C141,18.3,139.2,18.2,138.4,18.2 M167.8,21.9c0-0.1,0.1,0,0.2,0
	c0.5,1.5,1.8,5.2,2.5,7.3c0.1,0.1,0,0.3-0.1,0.3c-0.3,0-1.5,0-2.3,0c-1.3,0-2.4,0-2.7,0c-0.1,0-0.1-0.1-0.1-0.2
	C165.9,27.4,167.3,23.6,167.8,21.9 M161.4,35.1c-1.1,2.6-1.5,2.8-4,3.1c-0.1,0.1-0.1,0.8,0,1c0.6,0,1.7-0.1,3.6-0.1
	c1.9,0,3.6,0.1,4.3,0.1c0.1-0.1,0.2-0.8,0.1-1c-0.6-0.1-1.2-0.2-1.6-0.3c-1-0.3-1.1-0.6-1.1-1.2c0.1-0.8,1.2-3.7,1.8-5.5
	c0-0.1,0.2-0.3,0.3-0.3c0.4,0,0.6,0,2.8,0c1.5,0,2.7,0,3.2,0c0.1,0,0.3,0.1,0.3,0.2c0.6,1.5,1.6,4.4,2,5.8c0.1,0.3,0.1,0.6-0.4,0.8
	c-0.5,0.2-1.1,0.3-1.9,0.4c-0.1,0.1-0.1,0.8,0,1c0.7,0,2.8-0.1,4.4-0.1c1.5,0,3.2,0.1,4.1,0.1c0.1-0.1,0.2-0.9,0.1-1
	c-2.4-0.3-2.7-0.5-3.7-2.7c-1.2-2.8-4.9-13.5-5.6-15.5c-0.2-0.6-0.4-1.3-0.5-1.8c-0.1,0-0.4,0-1.1,0c-0.6,0-1,0-1.1,0
	c-0.1,0.5-0.3,1.2-0.6,1.9C166.3,22.4,163.1,31,161.4,35.1 M194,39.3c0.2-0.1,0.2-0.8,0.1-1c-1.2-0.1-1.8-0.2-2.3-0.4
	c-0.8-0.2-1-0.6-1.1-1.8c-0.1-1.7-0.1-11.1-0.1-16.1c0-0.1,0.1-0.2,0.2-0.3c0.8,0,3.1,0,4.7,0c0.6,0,1,0.3,1.3,1
	c0.3,0.6,0.4,1.8,0.5,3c0.1,0.1,1,0.1,1.1,0c0.2-1.8,0.4-4.5,0.8-5.7c0-0.1-0.2-0.2-0.3-0.2c-1,0.4-1.7,0.5-3.3,0.5h-12.5
	c-1.3,0-2.1-0.2-2.7-0.5c-0.1,0-0.4,0.1-0.4,0.1c-0.1,1.5-0.4,4.2-0.7,5.6c0.1,0.2,0.9,0.4,1,0.3c0.5-1.3,0.9-2.5,1.3-3.1
	c0.4-0.7,0.8-0.9,1.4-0.9c1.3,0,3.8,0,4.4,0c0.1,0,0.2,0.1,0.2,0.3c0,5.6,0,12.9-0.1,15.5c0,1.6-0.2,2.2-1.3,2.4
	c-0.5,0.1-1.4,0.2-2.4,0.3c-0.1,0.1-0.1,0.8,0,1c0.9,0,2.6-0.1,5.1-0.1C191,39.2,193,39.3,194,39.3 M217.5,37.1
	c-0.9,0.7-2.2,1.2-3.6,1.2c-1.7,0-3-0.4-4.2-1.2c-3-1.9-4.3-5.8-4.3-9.3c0-3.5,1.2-6.5,3.6-7.9c0.8-0.5,1.9-0.7,3-0.7
	c1.8,0,3.2,0.5,4.4,1.4c2.7,1.9,3.9,5.4,3.9,9C220.4,32.6,219.6,35.4,217.5,37.1 M205,36.7c1.8,1.9,4.4,3.1,7.6,3.1
	c3.4,0,6.8-1.5,8.9-4.4c1.4-1.9,2.1-4.1,2.1-7c0-5.5-3.5-10.6-10.4-10.6c-3.5,0-7.2,1.7-9,4.3c-1.4,1.9-2.1,4-2.1,6.5
	C202.1,31.6,203,34.5,205,36.7 M225.9,18.2c-0.1,0.1-0.2,0.8-0.1,0.9c1.3,0.1,2.1,0.3,2.7,0.7c0.7,0.4,0.9,1.2,0.9,1.7
	c-0.1,7.1-0.2,12.6-0.3,14.4c-0.1,1.3-0.5,1.8-1.3,2c-0.5,0.1-1,0.2-1.8,0.3c-0.1,0.1-0.1,0.9,0,1c0.7,0,2-0.1,4.1-0.1
	c1.9,0,3.4,0.1,4.2,0.1c0.1-0.1,0.2-0.8,0.1-1c-0.8-0.1-1.5-0.2-2-0.3c-0.9-0.2-1.3-0.7-1.4-2c-0.1-1.9-0.1-9.8,0-13.3
	c0,0,0.1-0.1,0.1,0c2,2.5,11.3,14.2,13.1,16.7c0.4,0,2,0,2.3,0c0-1.1-0.1-3.1-0.1-4.6c0.1-6.4,0.1-10.7,0.3-13.3
	c0.1-0.9,0.3-1.5,1.1-1.8c0.4-0.1,0.9-0.2,1.5-0.3c0.1-0.1,0.1-0.8,0-0.9c-0.4,0-2.4,0.1-3.6,0.1c-2.1,0-3.6-0.1-4.5-0.1
	c-0.1,0.1-0.1,0.8,0,0.9c0.9,0.1,1.7,0.2,2.3,0.4c1,0.3,1.2,0.8,1.3,1.8c0.2,2.4,0.1,8.8,0.1,13.4c0,0-0.1,0.1-0.1,0
	c-1.6-1.9-8.6-10.4-12-14.7c-0.9-1.1-1.1-1.5-1.2-1.8c-0.3,0-0.8,0-1.5,0C228.4,18.3,226.7,18.2,225.9,18.2 M93,48.8
	c0.8,0.4,1.1,0.8,1.3,2.5c0,0.1,0.6,0,0.7,0c0-1,0.2-2.5,0.3-3.3c-1-0.1-2.4-0.4-4.2-0.4c-1.8,0-3.2,0.4-4.3,1
	c-2.3,1.3-3.4,3.6-3.4,5.9c0,4.4,2.6,7,7.4,7c1.3,0,2.6-0.3,3.3-0.5c0.5-0.3,1.4-2,1.6-2.9c0-0.1-0.4-0.3-0.5-0.3
	c-0.6,0.9-1.1,1.7-1.6,2.1c-0.5,0.5-1.4,0.7-2.3,0.7c-3.8,0-5.7-2.9-5.7-6.3c0-3.6,1.8-5.9,4.9-5.9C91.3,48.4,92.3,48.5,93,48.8
	 M109.1,59.8c-0.6,0.5-1.4,0.7-2.3,0.7c-1.1,0-1.9-0.3-2.7-0.7c-1.9-1.2-2.7-3.6-2.7-5.9c0-2.2,0.7-4.1,2.3-5
	c0.5-0.3,1.2-0.5,1.9-0.5c1.1,0,2,0.3,2.8,0.9c1.7,1.2,2.5,3.4,2.5,5.7C110.8,57,110.4,58.7,109.1,59.8 M101.1,59.5
	c1.1,1.2,2.8,1.9,4.8,1.9c2.1,0,4.3-1,5.6-2.8c0.9-1.2,1.3-2.6,1.3-4.4c0-3.5-2.2-6.7-6.5-6.7c-2.2,0-4.5,1.1-5.7,2.7
	c-0.9,1.2-1.3,2.5-1.3,4.1C99.3,56.3,99.9,58.1,101.1,59.5 M116.2,47.9c-0.1,0.1-0.1,0.5-0.1,0.6c0.4,0,0.9,0.1,1.2,0.2
	c0.6,0.1,0.7,0.4,0.7,1.2c0,0.6,0,1.8,0,4.1c0,2.8,0,4.9-0.1,5.4c0,0.5-0.2,0.7-0.7,0.9c-0.4,0.1-0.8,0.1-1.4,0.2
	c-0.1,0.1-0.1,0.6,0,0.6c0.4,0,2-0.1,3-0.1c1.1,0,4.8,0.1,6.1,0.1c0.6,0,0.8-0.1,0.9-0.3c0.4-0.6,1-2.7,1.1-3.6
	c-0.1-0.1-0.5-0.3-0.6-0.2c-0.4,0.9-0.9,1.8-1.3,2.3c-0.4,0.6-0.8,0.8-1.3,0.8c-0.9,0-3,0-3.6-0.2c-0.1,0-0.4-0.3-0.4-0.6
	c-0.1-0.9-0.1-2.7-0.1-5.3c0-2,0-3.8,0.1-4.6c0-0.4,0.1-0.7,0.6-0.9c0.3-0.1,0.6-0.1,1.1-0.2c0.1-0.1,0.1-0.5,0-0.6
	c-0.4,0-1.2,0.1-2.6,0.1C117.6,48,116.9,47.9,116.2,47.9 M130.7,47.9c-0.1,0.1-0.1,0.5-0.1,0.6c0.4,0,0.9,0.1,1.2,0.2
	c0.6,0.1,0.7,0.4,0.7,1.2c0,0.6,0,1.8,0,4.1c0,2.8,0,4.9-0.1,5.4c0,0.5-0.2,0.7-0.7,0.9c-0.4,0.1-0.8,0.1-1.4,0.2
	c-0.1,0.1-0.1,0.6,0,0.6c0.4,0,2-0.1,3-0.1c1.1,0,4.8,0.1,6.1,0.1c0.6,0,0.8-0.1,0.9-0.3c0.4-0.6,1-2.7,1.1-3.6
	c-0.1-0.1-0.5-0.3-0.6-0.2c-0.4,0.9-0.9,1.8-1.3,2.3c-0.4,0.6-0.8,0.8-1.3,0.8c-0.9,0-3,0-3.6-0.2c-0.1,0-0.4-0.3-0.4-0.6
	c-0.1-0.9-0.1-2.7-0.1-5.3c0-2,0-3.8,0.1-4.6c0-0.4,0.1-0.7,0.6-0.9c0.3-0.1,0.6-0.1,1.1-0.2c0.1-0.1,0.1-0.5,0-0.6
	c-0.4,0-1.2,0.1-2.6,0.1C132,48,131.3,47.9,130.7,47.9 M145.7,47.9c-0.1,0.1-0.1,0.5,0,0.6c0.5,0.1,0.9,0.1,1.1,0.2
	c0.5,0.1,0.6,0.3,0.6,1.1c0,0.4,0,2.3,0,4.2c0,2.4,0,4.8,0,5.2c-0.1,0.7-0.2,1-0.7,1.2c-0.4,0.1-1,0.1-1.6,0.2
	c-0.1,0.1-0.1,0.6,0,0.6c0.9,0,1.9-0.1,3.4-0.1c2.2,0,3.8,0.1,5.5,0.1c1.1,0,1.2-0.1,1.3-0.3c0.3-0.6,0.8-2.3,0.9-2.9
	c-0.1-0.1-0.5-0.3-0.6-0.2c-0.3,0.6-0.7,1.5-1.1,1.9c-0.4,0.5-0.7,0.7-1.6,0.7c-0.9,0-2.7,0-3.2-0.1c-0.3-0.1-0.5-0.4-0.5-0.8
	c0-1,0-3.3,0-4.3c0-0.1,0.1-0.2,0.1-0.2c0.8,0,2.6,0,3.2,0c0.5,0,0.6,0.3,0.7,0.6c0.1,0.3,0.1,0.4,0.2,0.9c0.1,0.1,0.6,0.1,0.7,0
	c0-0.5,0-1.2,0-1.9c0-0.7,0.1-1.6,0.1-2c-0.1-0.1-0.6-0.1-0.7-0.1c-0.1,0.3-0.1,0.6-0.2,0.9c-0.1,0.3-0.3,0.6-0.7,0.6
	c-0.8,0.1-2.4,0.1-3.3,0c-0.1,0-0.1-0.1-0.1-0.1c0-1,0-3.3,0-4.5c0-0.1,0.1-0.4,0.3-0.4c0.3,0,2.9,0,3.3,0c0.7,0.1,0.9,0.3,1.1,0.8
	c0.1,0.3,0.2,0.7,0.2,1.3c0.1,0.1,0.6,0.1,0.7,0c0.1-0.9,0.2-2.3,0.4-2.9c0,0-0.1-0.1-0.1-0.1c-0.4,0.1-1.6,0.1-2.4,0.1h-4.2
	C147.3,48,146.2,47.9,145.7,47.9 M172.4,60.7c0-0.1,0.1-0.4,0.1-0.4c-0.5-0.2-0.5-0.3-0.5-0.6c0-0.4,0-1.7,0-2.4
	c0-0.6,0.1-0.9,0.5-1c0.2-0.1,0.4-0.1,0.7-0.1c0.1-0.1,0.1-0.6,0-0.6c-0.4,0-1.1,0.1-2.3,0.1c-1.3,0-2.3-0.1-3-0.1
	c-0.1,0.1-0.1,0.6,0,0.6c0.7,0.1,1,0.1,1.4,0.2c0.6,0.2,0.7,0.4,0.8,1.1c0,0.7,0,1.5,0,2.2c0,0.4-0.2,0.7-0.5,0.9
	c-0.3,0.2-0.8,0.3-1.4,0.3c-3.9,0-5.8-2.8-5.8-6.5c0-3.5,1.6-5.9,4.9-5.9c1.4,0,2.2,0.2,2.9,0.6c0.6,0.4,0.9,1,1,2.6
	c0.1,0.1,0.6,0,0.7-0.1c0-1,0.2-2.6,0.4-3.4c-1.3-0.1-2.5-0.5-4.2-0.5c-1.7,0-3,0.3-4.2,0.8c-2.3,1-3.8,3.2-3.8,6.1
	c0,4.5,2.6,7,7.6,7C169.6,61.5,171.7,60.9,172.4,60.7 M177.3,47.9c-0.1,0.1-0.1,0.5,0,0.6c0.5,0.1,0.9,0.1,1.1,0.2
	c0.5,0.1,0.6,0.3,0.6,1.1c0,0.4,0,2.3,0,4.2c0,2.4,0,4.8,0,5.2c-0.1,0.7-0.2,1-0.7,1.2c-0.4,0.1-1,0.1-1.6,0.2
	c-0.1,0.1-0.1,0.6,0,0.6c0.9,0,1.9-0.1,3.4-0.1c2.2,0,3.8,0.1,5.5,0.1c1.1,0,1.2-0.1,1.3-0.3c0.3-0.6,0.8-2.3,0.9-2.9
	c-0.1-0.1-0.5-0.3-0.6-0.2c-0.3,0.6-0.7,1.5-1.1,1.9c-0.4,0.5-0.7,0.7-1.6,0.7c-0.9,0-2.7,0-3.2-0.1c-0.3-0.1-0.5-0.4-0.5-0.8
	c0-1,0-3.3,0-4.3c0-0.1,0.1-0.2,0.1-0.2c0.8,0,2.6,0,3.2,0c0.5,0,0.6,0.3,0.7,0.6c0.1,0.3,0.1,0.4,0.2,0.9c0.1,0.1,0.6,0.1,0.7,0
	c0-0.5,0-1.2,0-1.9c0-0.7,0.1-1.6,0.1-2c-0.1-0.1-0.6-0.1-0.7-0.1c-0.1,0.3-0.1,0.6-0.2,0.9c-0.1,0.3-0.3,0.6-0.7,0.6
	c-0.8,0.1-2.4,0.1-3.3,0c-0.1,0-0.1-0.1-0.1-0.1c0-1,0-3.3,0-4.5c0-0.1,0.1-0.4,0.3-0.4c0.3,0,2.9,0,3.3,0c0.7,0.1,0.9,0.3,1.1,0.8
	c0.1,0.3,0.2,0.7,0.2,1.3c0.1,0.1,0.6,0.1,0.7,0c0.1-0.9,0.2-2.3,0.4-2.9c0,0-0.1-0.1-0.1-0.1c-0.4,0.1-1.6,0.1-2.4,0.1h-4.2
	C179,48,177.8,47.9,177.3,47.9 M84.2,74.8c-0.1,0-0.3,0-0.5,0.1c0,0-0.1,0.2,0,0.3c0.3,0,0.7,0,1.2,0c0.5,0,1.1,0,1.4,0
	c0,0,0.1-0.2,0-0.3c-0.2,0-0.5-0.1-0.6-0.1c-0.3-0.1-0.3-0.2-0.3-0.5c0-0.4,0.2-1.2,0.3-1.8c0,0,0-0.1,0.1-0.1c0.3,0,1.2,0,1.5,0
	c0.2,0,0.3,0.1,0.3,0.3c0,0.1,0,0.2,0,0.4c0,0,0.3,0,0.3,0c0-0.3,0.1-0.7,0.1-0.9c0.1-0.3,0.1-0.7,0.2-0.9c0,0-0.3-0.1-0.3,0
	c-0.1,0.2-0.1,0.3-0.2,0.4c-0.1,0.2-0.2,0.3-0.4,0.3c-0.3,0-1.2,0-1.5,0c0,0-0.1,0,0-0.1c0.1-0.5,0.3-1.9,0.4-2.2
	c0-0.1,0.1-0.2,0.2-0.2c0.2,0,1.2,0,1.5,0c0.2,0,0.3,0.1,0.4,0.3c0,0.2,0,0.4,0,0.7c0,0,0.3,0,0.3,0c0.1-0.5,0.2-1,0.3-1.3
	c0,0,0-0.1,0-0.1c-0.2,0-0.6,0-0.9,0h-2.1c-0.5,0-1,0-1.2,0c0,0-0.1,0.2,0,0.3c0.2,0,0.4,0,0.6,0.1c0.2,0.1,0.2,0.2,0.2,0.5
	c0,0.4-0.6,3.8-0.7,4.2C84.5,74.6,84.5,74.7,84.2,74.8 M90,74.8c-0.5,0-0.7-0.4-0.7-1.2c0-0.8,0.4-2,1.1-2c0.6,0,0.7,0.6,0.7,1.1
	C91.1,73.8,90.6,74.8,90,74.8 M91.8,72.5c0-0.6-0.2-1.3-1-1.3c-0.3,0-0.9,0.2-1.3,0.5c-0.7,0.5-1,1.4-1,2.3c0,0.7,0.3,1.3,0.9,1.3
	c0.2,0,0.7-0.1,1-0.3C91.4,74.4,91.8,73.5,91.8,72.5 M94.3,71.7c-0.2,0.3-0.4,0.6-0.6,0.9c0,0,0,0,0,0c0-0.2,0.1-0.4,0.1-0.7
	c0.1-0.6,0-0.8-0.1-0.8c-0.2,0-0.8,0.4-1.2,0.9c0,0,0,0.2,0,0.3c0,0,0,0,0,0c0.3-0.2,0.5-0.4,0.5-0.4c0.1,0,0.1,0.1,0.1,0.3
	c-0.1,0.8-0.5,2.6-0.6,2.9c0,0,0,0.1,0.1,0.1c0.1,0,0.6-0.2,0.7-0.3c0-0.2,0-0.5,0.1-0.7c0.1-0.4,0.2-0.8,0.4-1.1
	c0.4-0.8,0.7-1.2,0.9-1.2c0.1,0,0.2,0.1,0.4,0.2c0,0,0.1,0,0.1,0c0.1-0.1,0.4-0.5,0.4-0.6v-0.1c-0.1-0.2-0.3-0.2-0.4-0.2
	C94.9,71.2,94.6,71.4,94.3,71.7 M102.2,69.6c0.3,0.2,0.4,0.3,0.4,1.1c0,0,0.3,0,0.3,0c0-0.4,0.2-1.1,0.3-1.4c-0.2,0-0.4-0.1-0.7-0.1
	c-0.3,0-0.6-0.1-1-0.1c-0.7,0-1.2,0.1-1.7,0.4c-1.3,0.7-1.9,1.9-1.9,3.2c0,1.6,0.9,2.7,2.6,2.7c0.5,0,1-0.1,1.3-0.2
	c0.3-0.1,0.8-0.6,1-1.1c0-0.1-0.1-0.2-0.2-0.2c-0.4,0.5-0.7,0.8-1,0.9c-0.2,0.1-0.5,0.1-0.7,0.1c-1.3,0-2.1-0.9-2.1-2.4
	c0-1.7,0.9-3,2.4-3C101.5,69.4,101.9,69.5,102.2,69.6 M104.7,73.1c0.5-0.8,1.1-1.3,1.4-1.3c0.2,0,0.2,0.2,0.1,0.6
	c-0.2,0.8-0.3,1.6-0.5,2.2c-0.1,0.4,0,0.7,0.2,0.7c0.2,0,0.8-0.3,1.2-0.8c0,0,0-0.2,0-0.3c0,0,0,0,0-0.1c-0.2,0.3-0.5,0.4-0.6,0.4
	c-0.1,0-0.1-0.1-0.1-0.2c0.1-0.5,0.2-1.2,0.4-1.9c0.1-0.7,0.1-1.2-0.2-1.2c-0.5,0-1.5,0.7-2.2,1.7c0,0,0,0,0,0
	c0.1-0.7,0.5-2.8,0.7-3.8c0.1-0.4,0-0.5-0.1-0.5c-0.2,0-0.9,0.3-1.3,0.6c0,0-0.1,0.2,0,0.3c0.3-0.1,0.4-0.2,0.6-0.2
	c0.1,0,0.1,0.1,0.1,0.2c-0.1,0.6-0.7,3.7-1,5.2c0,0.2-0.1,0.4-0.1,0.5c0,0,0.1,0.1,0.1,0.1c0.1,0,0.6-0.3,0.7-0.4
	c-0.1-0.2,0-0.4,0-0.7C104.3,73.8,104.5,73.5,104.7,73.1 M109.7,71.7c-0.2,0.3-0.4,0.6-0.6,0.9c0,0,0,0,0,0c0-0.2,0.1-0.4,0.1-0.7
	c0.1-0.6,0-0.8-0.1-0.8c-0.2,0-0.8,0.4-1.2,0.9c0,0,0,0.2,0,0.3c0,0,0,0,0,0c0.3-0.2,0.5-0.4,0.5-0.4c0.1,0,0.1,0.1,0.1,0.3
	c-0.1,0.8-0.5,2.6-0.6,2.9c0,0,0,0.1,0.1,0.1c0.1,0,0.6-0.2,0.7-0.3c0-0.2,0-0.5,0.1-0.7c0.1-0.4,0.2-0.8,0.4-1.1
	c0.4-0.8,0.7-1.2,0.9-1.2c0.1,0,0.2,0.1,0.4,0.2c0,0,0.1,0,0.1,0c0.1-0.1,0.4-0.5,0.4-0.6v-0.1c-0.1-0.2-0.3-0.2-0.4-0.2
	C110.2,71.2,110,71.4,109.7,71.7 M112.8,69.6c0,0-0.1-0.1-0.2-0.1c-0.2,0-0.4,0.1-0.5,0.2c0,0-0.1,0.2-0.1,0.3
	c0,0.2,0.1,0.3,0.2,0.3c0,0,0.4,0,0.4,0c0.1-0.1,0.2-0.2,0.2-0.4C112.8,69.8,112.8,69.7,112.8,69.6 M112.7,74.1
	C112.7,74.1,112.6,74.1,112.7,74.1c-0.3,0.3-0.5,0.4-0.6,0.4c-0.1,0-0.1-0.1-0.1-0.2c0.1-0.5,0.4-1.9,0.5-2.4
	c0.1-0.4,0.1-0.7-0.1-0.7c-0.2,0-0.8,0.4-1.2,0.8c0,0-0.1,0.2,0,0.2c0,0,0,0,0,0c0.2-0.2,0.4-0.3,0.5-0.3c0,0,0.1,0.1,0,0.2
	c-0.1,0.6-0.3,1.5-0.5,2.2c-0.1,0.6,0,0.9,0.2,0.9c0.2,0,0.8-0.3,1.2-0.9C112.6,74.4,112.7,74.2,112.7,74.1 M115.7,71.4
	c-0.1-0.1-0.3-0.2-0.6-0.2c-0.2,0-0.7,0.1-1.1,0.5c-0.3,0.3-0.4,0.6-0.4,0.9c0,0.3,0.1,0.5,0.6,0.9c0.6,0.4,0.7,0.6,0.7,0.9
	c0,0.3-0.2,0.5-0.6,0.5c-0.4,0-0.8-0.3-0.9-0.7c0,0-0.1,0-0.1,0c-0.1,0.1-0.2,0.5-0.2,0.6c0,0.1,0,0.2,0.1,0.3
	c0.1,0.1,0.4,0.2,0.7,0.2c0.3,0,0.7-0.1,1.1-0.4c0.4-0.4,0.5-0.7,0.5-0.9c0-0.3-0.2-0.5-0.7-0.9c-0.6-0.4-0.7-0.6-0.7-0.8
	c0-0.3,0.2-0.5,0.5-0.5c0.3,0,0.5,0.1,0.6,0.4c0,0,0.1,0,0.1,0c0.1-0.1,0.3-0.4,0.3-0.5C115.7,71.5,115.7,71.4,115.7,71.4
	 M117.1,74.1c0-0.4,0.2-1.6,0.4-2.3c0,0,0-0.1,0.1-0.1c0.3,0,0.5,0,0.6-0.1c0.2,0,0.4-0.1,0.5-0.2c0,0,0.1-0.2,0.1-0.2
	c-0.1,0-0.6,0.1-1.1,0.1c0,0,0,0,0-0.1c0.1-0.3,0.1-0.7,0.2-0.9c0-0.2,0.1-0.4,0.2-0.5c0,0,0-0.1-0.1-0.1c-0.2,0.1-0.7,0.5-0.7,0.6
	c-0.1,0.1-0.1,0.5-0.3,1c0,0,0,0-0.1,0c-0.2,0-0.3,0-0.4,0c0,0-0.3,0.2-0.4,0.3c0,0,0,0,0,0.1c0.1,0,0.4,0,0.7,0c0,0,0,0,0,0
	c-0.2,0.9-0.5,2.5-0.5,2.8c0,0.4,0.1,0.6,0.3,0.6c0.5,0,1.2-0.6,1.5-1c0,0,0.1-0.2,0-0.3c0,0,0,0,0,0c-0.2,0.2-0.6,0.6-0.9,0.6
	C117.1,74.6,117.1,74.5,117.1,74.1 M121.6,72.7c0-1,0.4-1.4,0.7-1.4c0.3,0,0.5,0.4,0.5,0.7c0,0.2,0,0.4-0.2,0.5
	c-0.3,0.3-0.6,0.7-0.8,0.9c0,0,0,0-0.1,0C121.6,73.2,121.6,73,121.6,72.7 M126.1,72.2c-0.3,0-0.7-0.1-1.2-0.1
	c-0.7,0-1.3,0.7-1.5,1.3c0,0.1,0.1,0.2,0.1,0.2c0,0,0.1,0,0.1,0c0.2-0.6,0.6-0.9,1-0.9c0.2,0,0.3,0,0.4,0.1c0,0,0,0.1,0,0.2
	c-0.1,1.2-0.8,1.9-1.7,1.9c-0.8,0-1.3-0.4-1.6-0.9c0,0,0-0.1,0-0.1c0.2-0.2,0.6-0.6,0.9-1c1.2-1.3,1.9-2.3,2-3.2
	c0-0.2,0-0.4-0.1-0.5c-0.1,0-0.6,0.4-0.7,0.5c0,0.1,0.1,0.4,0,0.5c0,0.6-0.2,1-0.7,1.6c0,0,0,0,0,0c0-0.3-0.2-0.8-0.7-0.8
	c-0.2,0-0.7,0.3-0.9,0.5c-0.6,0.5-0.8,1.2-0.8,1.8c0,1.2,0.6,2.3,2,2.3c1.4,0,2.5-1.2,2.8-2.7c0.8-0.1,1.3-0.8,1.3-1.3
	c0-0.2-0.1-0.5-0.2-0.6c-0.1,0-0.6,0.3-0.6,0.4c0.2,0.2,0.3,0.4,0.3,0.6C126.5,72.1,126.3,72.2,126.1,72.2 M130,69.2
	c0,0-0.1,0.2,0,0.3c0.2,0,0.4,0,0.5,0.1c0.2,0,0.2,0.2,0.2,0.5c0,0.5-0.5,3.5-0.6,4.1c-0.1,0.5-0.2,0.6-0.5,0.7
	c-0.2,0-0.4,0.1-0.5,0.1c0,0,0,0.2,0,0.3c0.2,0,0.7,0,1.3,0c0.5,0,1,0,1.2,0c0,0,0.1-0.2,0.1-0.3c-0.3,0-0.4,0-0.5-0.1
	c-0.2-0.1-0.3-0.2-0.2-0.6c0-0.3,0.2-1.4,0.3-1.9c0,0,0-0.1,0-0.1c0.1,0,0.6,0,1.6,0c0.5,0,1.2,0,1.4,0c0,0,0,0,0,0.1
	c-0.1,0.6-0.2,1.6-0.3,1.9c-0.1,0.2-0.1,0.4-0.3,0.4c-0.1,0-0.3,0.1-0.5,0.1c0,0-0.1,0.2,0,0.3c0.2,0,0.6,0,1.2,0c0.5,0,1,0,1.2,0
	c0,0,0.1-0.2,0-0.3c-0.3,0-0.4,0-0.5-0.1c-0.2-0.1-0.2-0.2-0.2-0.5c0.1-0.6,0.6-3.7,0.7-4.2c0.1-0.3,0.1-0.5,0.3-0.5
	c0.1,0,0.3-0.1,0.5-0.1c0,0,0.1-0.2,0-0.3c-0.2,0-0.5,0-1.2,0c-0.5,0-0.9,0-1.1,0c0,0-0.1,0.2,0,0.3c0.2,0,0.4,0,0.5,0.1
	c0.1,0,0.2,0.1,0.2,0.4c0,0.3-0.2,1.3-0.3,1.9c0,0,0,0.1-0.1,0.1c-0.1,0-0.5,0-1.4,0c-1.4,0-1.5,0-1.6,0c0,0,0,0,0-0.1
	c0.1-0.9,0.2-1.5,0.3-1.8c0.1-0.3,0.1-0.4,0.3-0.4c0.1,0,0.3-0.1,0.5-0.1c0,0,0.1-0.2,0-0.3c-0.2,0-0.6,0-1.2,0
	C130.6,69.2,130.2,69.2,130,69.2 M137.8,69.6c0,0-0.1-0.1-0.2-0.1c-0.2,0-0.4,0.1-0.5,0.2c0,0-0.1,0.2-0.1,0.3
	c0,0.2,0.1,0.3,0.2,0.3c0,0,0.4,0,0.4,0c0.1-0.1,0.2-0.2,0.2-0.4C137.9,69.8,137.8,69.7,137.8,69.6 M137.7,74.1
	C137.7,74.1,137.7,74.1,137.7,74.1c-0.3,0.3-0.5,0.4-0.6,0.4c-0.1,0-0.1-0.1-0.1-0.2c0.1-0.5,0.4-1.9,0.5-2.4
	c0.1-0.4,0.1-0.7-0.1-0.7c-0.2,0-0.8,0.4-1.2,0.8c0,0-0.1,0.2,0,0.2c0,0,0,0,0,0c0.2-0.2,0.4-0.3,0.5-0.3c0,0,0.1,0.1,0,0.2
	c-0.1,0.6-0.3,1.5-0.5,2.2c-0.1,0.6,0,0.9,0.2,0.9c0.2,0,0.8-0.3,1.2-0.9C137.7,74.4,137.7,74.2,137.7,74.1 M140.7,71.4
	c-0.1-0.1-0.3-0.2-0.6-0.2c-0.2,0-0.7,0.1-1.1,0.5c-0.3,0.3-0.4,0.6-0.4,0.9c0,0.3,0.1,0.5,0.6,0.9c0.6,0.4,0.7,0.6,0.7,0.9
	c0,0.3-0.2,0.5-0.6,0.5c-0.4,0-0.8-0.3-0.9-0.7c0,0-0.1,0-0.1,0c-0.1,0.1-0.2,0.5-0.2,0.6c0,0.1,0,0.2,0.1,0.3
	c0.1,0.1,0.4,0.2,0.7,0.2c0.3,0,0.7-0.1,1.1-0.4c0.4-0.4,0.5-0.7,0.5-0.9c0-0.3-0.2-0.5-0.7-0.9c-0.6-0.4-0.7-0.6-0.7-0.8
	c0-0.3,0.2-0.5,0.5-0.5c0.3,0,0.5,0.1,0.6,0.4c0,0,0.1,0,0.1,0c0.1-0.1,0.3-0.4,0.3-0.5C140.7,71.5,140.7,71.4,140.7,71.4
	 M146.9,69.2c-0.1,0-0.1,0.2,0,0.3c0.2,0,0.4,0.1,0.5,0.1c0.1,0,0.1,0.1,0.1,0.2c0,0.1,0,0.2-0.3,0.5c-0.5,0.5-1.8,1.7-2.2,1.9
	c0,0-0.1,0.1-0.1,0.1c0,0,0.1,0.1,0.1,0.2c0.4,0.6,1.3,1.9,1.6,2.3c0.2,0.2,0.3,0.3,0.4,0.3c0.2,0.1,1,0.1,1.5,0.1
	c0.1,0,0.1-0.2,0-0.3c-0.3,0-0.5,0-0.6-0.1c-0.1,0-0.3-0.1-0.4-0.2c-0.6-0.5-1.5-1.8-1.9-2.5c0,0,0,0,0,0c0.6-0.5,1.5-1.3,2.1-1.9
	c0.4-0.4,0.7-0.5,1.3-0.6c0.1,0,0.1-0.2,0-0.3c-0.2,0-0.5,0-1.1,0C147.5,69.2,147.1,69.2,146.9,69.2 M143.7,69.2c0,0-0.1,0.2,0,0.3
	c0.2,0,0.4,0.1,0.5,0.1c0.2,0.1,0.3,0.2,0.2,0.4c-0.2,1.2-0.5,3.1-0.7,4.2c-0.1,0.4-0.2,0.5-0.4,0.6c-0.1,0-0.3,0-0.5,0.1
	c0,0,0,0.2,0,0.3c0.1,0,0.6,0,1.2,0c0.6,0,1,0,1.3,0c0,0,0.1-0.2,0-0.3c-0.2,0-0.4,0-0.5-0.1c-0.2-0.1-0.3-0.2-0.3-0.6
	c0.2-1.1,0.5-3.3,0.7-4.1c0.1-0.3,0.1-0.5,0.4-0.5c0.1,0,0.3-0.1,0.5-0.1c0,0,0-0.2,0-0.3c-0.2,0-0.7,0-1.2,0
	C144.4,69.2,143.9,69.2,143.7,69.2 M150.8,69.6c0,0-0.1-0.1-0.2-0.1c-0.2,0-0.4,0.1-0.5,0.2c0,0-0.1,0.2-0.1,0.3
	c0,0.2,0.1,0.3,0.2,0.3c0,0,0.4,0,0.4,0c0.1-0.1,0.2-0.2,0.2-0.4C150.9,69.8,150.9,69.7,150.8,69.6 M150.7,74.1
	C150.7,74.1,150.7,74.1,150.7,74.1c-0.3,0.3-0.5,0.4-0.6,0.4c-0.1,0-0.1-0.1-0.1-0.2c0.1-0.5,0.4-1.9,0.5-2.4
	c0.1-0.4,0.1-0.7-0.1-0.7c-0.2,0-0.8,0.4-1.2,0.8c0,0-0.1,0.2,0,0.2c0,0,0,0,0,0c0.2-0.2,0.4-0.3,0.5-0.3c0,0,0.1,0.1,0,0.2
	c-0.1,0.6-0.3,1.5-0.5,2.2c-0.1,0.6,0,0.9,0.2,0.9c0.2,0,0.8-0.3,1.2-0.9C150.7,74.4,150.7,74.2,150.7,74.1 M151.4,72.3
	C151.4,72.3,151.4,72.4,151.4,72.3c0.2-0.2,0.5-0.3,0.6-0.3c0.1,0,0.1,0.1,0.1,0.2c-0.1,0.8-0.5,2.6-0.6,3c0,0,0,0.1,0.1,0.1
	c0.1,0,0.5-0.2,0.6-0.3c0-0.1,0-0.5,0.1-0.8c0.1-0.3,0.2-0.7,0.3-0.9c0.6-0.9,1.1-1.4,1.4-1.4c0.2,0,0.2,0.2,0.1,0.5
	c-0.1,0.5-0.3,1.2-0.4,1.9c-0.1,0.6-0.1,1,0.1,1c0.3,0,0.8-0.3,1.2-0.9c0,0,0.1-0.3,0-0.3c0,0,0,0,0,0c-0.3,0.3-0.5,0.4-0.6,0.4
	c-0.1,0-0.1-0.1-0.1-0.3c0.1-0.4,0.2-1,0.3-1.8c0.2-0.8,0.2-1.3-0.2-1.3c-0.2,0-0.3,0.1-0.5,0.2c-0.5,0.3-1.1,0.8-1.6,1.5
	c0,0,0,0,0,0c0-0.2,0.1-0.4,0.1-0.8c0.1-0.6,0.1-0.9-0.1-0.9c-0.2,0-0.8,0.4-1.2,0.9C151.4,72.1,151.3,72.3,151.4,72.3 M158,72.5
	c0,0.7-0.3,1.5-0.8,1.5c-0.4,0-0.6-0.4-0.6-0.9c0-0.6,0.3-1.5,0.9-1.5C157.8,71.6,158,71.9,158,72.5 M158,76.6
	c0,0.4-0.4,0.7-1.1,0.7c-0.8,0-1.4-0.5-1.4-0.9c0-0.3,0.9-0.9,1-0.9c0.2,0,0.7,0.3,1.1,0.5C157.9,76.2,158,76.4,158,76.6
	 M159.4,71.4c0,0,0-0.1,0-0.1c-0.2,0.2-0.4,0.2-0.7,0.2c-0.2,0-0.4-0.1-0.5-0.1c-0.2-0.1-0.5-0.2-0.6-0.2c-0.3,0-0.7,0.2-1,0.3
	c-0.6,0.4-0.9,1.1-0.9,1.7c0,0.5,0.2,0.9,0.7,1c0,0,0,0,0,0c-0.1,0.1-0.4,0.3-0.5,0.4c0,0-0.1,0.1-0.1,0.1c0,0.1,0.1,0.3,0.3,0.5
	c0,0,0,0,0,0c-0.7,0.4-1.3,0.8-1.3,1.2c0,0.7,0.7,1.2,1.7,1.2c0.3,0,0.8-0.1,1.2-0.3c0.6-0.3,0.9-0.8,0.9-1.2c0-0.3-0.2-0.5-0.5-0.8
	c-0.3-0.2-0.9-0.5-1.2-0.7c-0.2-0.1-0.3-0.2-0.3-0.3c0-0.1,0.1-0.1,0.2-0.2c0.1,0,0.2-0.1,0.2-0.1c0.2,0,0.5-0.2,0.8-0.3
	c0.5-0.3,0.8-0.9,0.8-1.6c0-0.1,0-0.2,0-0.3c0.1,0,0.2-0.1,0.3-0.1C159.1,71.9,159.4,71.6,159.4,71.4 M161.8,73.4
	c-0.5,0.8-1,1.2-1.3,1.2c-0.2,0-0.4-0.2-0.4-0.7c0-1,0.4-2.3,1.3-2.3c0.3,0,0.6,0.1,0.7,0.2c0,0,0.1,0.1,0.1,0.2
	c0,0.1-0.1,0.6-0.2,0.9C162,73.1,161.9,73.3,161.8,73.4 M160.2,71.9c-0.5,0.5-0.9,1.4-0.9,2.3c0,0.5,0.1,1.1,0.6,1.1
	c0.4,0,1.2-0.6,1.9-1.4c0,0,0,0,0,0c-0.1,0.5-0.2,0.9-0.2,1.2c0,0.2,0,0.4,0.1,0.4c0.2,0,0.9-0.5,1.3-0.9c0,0,0.1-0.2,0-0.3
	c0,0,0,0,0,0c-0.3,0.3-0.5,0.4-0.6,0.4c0,0-0.1-0.1-0.1-0.2c0-0.6,0.7-3.8,1-5.3c0-0.3,0.1-0.5-0.1-0.5c-0.2,0-0.9,0.3-1.4,0.5
	c0,0-0.1,0.2,0,0.3c0.3-0.1,0.5-0.2,0.6-0.2c0.1,0,0.1,0.1,0.1,0.3c0,0.3-0.2,1.1-0.3,1.7c0,0,0,0,0,0c-0.1,0-0.3-0.1-0.5-0.1
	C161.4,71.2,160.6,71.5,160.2,71.9 M165.3,74.8c-0.5,0-0.7-0.4-0.7-1.2c0-0.8,0.4-2,1.1-2c0.6,0,0.7,0.6,0.7,1.1
	C166.4,73.8,165.9,74.8,165.3,74.8 M167.1,72.5c0-0.6-0.2-1.3-1-1.3c-0.3,0-0.9,0.2-1.3,0.5c-0.7,0.5-1,1.4-1,2.3
	c0,0.7,0.3,1.3,0.9,1.3c0.2,0,0.7-0.1,1-0.3C166.7,74.4,167.1,73.5,167.1,72.5 M167.8,72.3C167.8,72.3,167.8,72.3,167.8,72.3
	c0.3-0.2,0.5-0.3,0.6-0.3c0.1,0,0.1,0.1,0,0.3c-0.1,0.6-0.3,1.6-0.5,2.3c-0.1,0.3-0.1,0.4-0.1,0.5c0,0.1,0,0.2,0.1,0.2
	c0.1,0,0.5-0.2,0.7-0.3c0-0.2,0.1-0.7,0.2-1.1c0.1-0.3,0.2-0.5,0.3-0.7c0.6-0.9,1.1-1.4,1.4-1.4c0.2,0,0.2,0.2,0.1,0.6
	c-0.1,0.9-0.5,2.3-0.5,2.6c0,0.1,0,0.2,0.1,0.2c0.1,0,0.6-0.2,0.6-0.3c0-0.2,0.1-0.6,0.1-0.9c0.1-0.4,0.2-0.7,0.3-0.9
	c0.5-0.8,1.2-1.4,1.5-1.4c0.2,0,0.2,0.2,0.1,0.6c-0.1,0.6-0.2,1.1-0.4,1.9c-0.1,0.6-0.1,0.9,0.1,0.9c0.2,0,0.8-0.3,1.2-0.9
	c0,0,0-0.2,0-0.3c0,0,0-0.1,0-0.1c-0.3,0.3-0.5,0.4-0.6,0.4c-0.1,0-0.1-0.1-0.1-0.3c0.1-0.5,0.2-1,0.3-1.7c0.2-0.9,0.2-1.3-0.2-1.3
	c-0.5,0-1.4,0.7-2.1,1.7c0,0,0,0,0,0c0-0.2,0.1-0.5,0.1-0.8c0.1-0.6,0-0.9-0.3-0.9c-0.4,0-1.3,0.7-2,1.7c0,0,0,0,0,0
	c0.1-0.3,0.1-0.6,0.2-0.9c0.1-0.4,0.1-0.7-0.1-0.7c-0.2,0-0.8,0.4-1.2,0.8C167.8,72.1,167.8,72.2,167.8,72.3 M34.3,10.1V1.3
	c0.2-0.1,0.3-0.3,0.3-0.5c0-0.4-0.3-0.7-0.7-0.7c-0.4,0-0.7,0.3-0.7,0.7c0,0.2,0.1,0.4,0.3,0.5v8.7h-33v36.1
	C0.5,62,10,71.3,18.8,76.5c2.6,1.5,5.4,2.9,8.2,3.9c2.2,0.9,4.5,1.6,6.9,2.1c2.3-0.5,4.6-1.2,6.8-2.1c2.9-1.1,5.7-2.4,8.3-4v0
	c8.9-5.2,18.3-14.5,18.3-30.4V10.1H34.3z"/>
<path fill="#FFFFFF" d="M40.7,44.8H27.1l-8.3,4.4v27.4c0,0,0,0,0,0c2.6,1.5,5.4,2.9,8.2,3.9c1.6,0.6,3.3,1.2,5,1.7l0-12.6
	c0-1,0.8-1.9,1.9-1.9c1,0,1.9,0.8,1.9,1.9v12.5c1.7-0.4,3.3-1,4.9-1.6c2.9-1.1,5.7-2.4,8.3-4V49.2L40.7,44.8z M24.2,75.3l-1.9,0.4
	v-9.2c0-0.5,0.4-1.1,0.9-1.2c0.5-0.1,0.9,0.2,0.9,0.7V75.3z M23.4,57.3c-0.7,0.2-1.2-0.4-1.2-1.5c0-1,0.5-2.1,1.2-2.3
	c0.7-0.3,1.2,0.4,1.2,1.5C24.6,56,24.1,57,23.4,57.3z M33.9,56.5c-0.6,0-1.2-0.3-1.6-0.7c0,0,0,0,0,0c0,0,0,0,0,0c0,0,0,0,0,0
	c0,0-0.1-0.1-0.1-0.1c0,0,0,0,0,0c0,0,0,0,0,0c-0.3-0.4-0.4-0.8-0.4-1.3c0-1.3,1-2.3,2.3-2.3c0.6,0,1.2,0.3,1.6,0.7
	c0.4,0.4,0.7,1,0.7,1.6C36.2,55.5,35.1,56.5,33.9,56.5z M45.4,75.7l-1.9-0.4v-9.3c0-0.5,0.4-0.8,0.9-0.7c0.5,0.1,0.9,0.7,0.9,1.2
	V75.7z M44.4,57.3c-0.7-0.2-1.2-1.3-1.2-2.4c0-1.1,0.5-1.7,1.2-1.5c0.7,0.2,1.2,1.3,1.2,2.3C45.6,56.8,45,57.5,44.4,57.3z
	 M38.3,15.4L38.3,15.4z M50.2,47v1l-9-4.8H26.6l-9,4.8v-1l7.4-8.4l5.1-2.6h7.7l5.1,2.6L50.2,47z M31.9,55.3
	c-0.1-0.1-0.1-0.2-0.2-0.4C31.8,55,31.8,55.2,31.9,55.3 M34.7,52.1c-0.1,0-0.2-0.1-0.3-0.1C34.5,52,34.6,52,34.7,52.1 M30.4,8.8
	c-0.4,0.5-0.6,1.4,0.1,2.5c0,0-0.1,1.2-2.3,1.1c-2,0-2.3,1-2.4,1.4c-0.8-0.7-1.4-1.1-1.3-2.5c0-0.1,0-0.1,0-0.2c0,0,0,0,0,0
	c0,0,0-0.1,0-0.1C25.2,9.6,28.1,9,30.4,8.8 M38.3,15.4v1.6h-8.8l-5.5,2.9v-1.6l5.5-2.9h4v-5.3h0.8v5.3H38.3z M30.1,19.9L25,22.6
	l0,15l1.5-0.8V26.6c0-0.6,0.4-1.3,0.9-1.6c0.5-0.3,0.9,0,0.9,0.6v10.2l1.9-1h2.7V24.8c0-0.6,0.5-1.1,1.1-1.1c0.6,0,1.1,0.5,1.1,1.1
	v10.1h2.7v-15L30.1,19.9z M25,20.6v1.5l5.1-2.6h2.4L30.1,18L25,20.6z M6.1,26.3v8.5h6v0.5h2.1v-0.5h6v-8.5h0.8v9.3h-6.3v0.5h-3v-0.5
	H5.3v-9.3H6.1z M9.8,25c-1.2,0-2.2,0.2-2.9,0.5v8.7c0.7-0.3,1.7-0.5,2.9-0.5c1.2,0,2.2,0.2,2.9,0.5v-8.7C12,25.2,11,25,9.8,25
	 M16.4,25c-1.2,0-2.2,0.2-2.9,0.5v8.7c0.7-0.3,1.7-0.5,2.9-0.5c1.2,0,2.2,0.2,2.9,0.5v-8.7C18.6,25.2,17.6,25,16.4,25 M58,25
	c1.2,0,2.2,0.2,2.9,0.5v8.7c-0.7-0.3-1.7-0.5-2.9-0.5c-1.2,0-2.2,0.2-2.9,0.5v-8.7C55.8,25.2,56.8,25,58,25 M61.7,26.3v8.5h-6v0.5
	h-2.1v-0.5h-6v-8.5h-0.8v9.3h6.3v0.5h3v-0.5h6.3v-9.3H61.7z M51.4,25c-1.2,0-2.2,0.2-2.9,0.5v8.7c0.7-0.3,1.7-0.5,2.9-0.5
	c1.2,0,2.2,0.2,2.9,0.5v-8.7C53.6,25.2,52.5,25,51.4,25"/>
<path fill="#D7D2CB" d="M41.2,42.2l-3.5-6.3l5.1,2.6l7.4,8.4L41.2,42.2z M30.8,35.9L28,42.2h1.2l2.5-6.3H30.8z M40.7,44.8v35.8
	c1.4-0.5,2.8-1.1,4.2-1.8c0.9-0.4,1.9-0.9,2.8-1.4V48.5L40.7,44.8z M45.4,75.7l-1.9-0.4v-9.3c0-0.5,0.4-0.8,0.9-0.7
	c0.5,0.1,0.9,0.7,0.9,1.2V75.7z M44.4,57.3c-0.7-0.2-1.2-1.3-1.2-2.4c0-1.1,0.5-1.7,1.2-1.5c0.7,0.2,1.2,1.3,1.2,2.3
	C45.6,56.8,45,57.5,44.4,57.3z M20.1,48.5l5.2-2.7v1.8L20.7,50v27.7c-0.2-0.1-0.3-0.2-0.5-0.3c0,0,0,0,0,0V50.3V48.5z M28.9,44.8
	h9.9v1.6H32v4.9c1.3-0.8,3.1-0.7,4.3,0.5l-0.9,0.9c-0.4-0.4-1-0.7-1.6-0.7c-1.3,0-2.3,1-2.3,2.3c0,0.5,0.2,0.9,0.4,1.3c0,0,0,0,0,0
	c0,0,0,0,0,0c0,0.1,0.1,0.1,0.1,0.1c0,0,0,0,0,0c0,0,0,0,0,0l-0.5,0.5l-0.3,0.3c0.2,0.2,0.4,0.3,0.6,0.5v9.1
	c-0.3,0.2-0.6,0.4-0.9,0.7c-0.3,0.3-0.5,0.6-0.7,0.9h1c0.1-0.1,0.2-0.2,0.3-0.3c0.6-0.6,1.3-0.9,2.2-0.9c0.7,0,1.3,0.2,1.9,0.6v2.4
	c0-1-0.8-1.9-1.9-1.9c-1,0-1.9,0.8-1.9,1.9v12.5c-1-0.3-2.1-0.6-3.1-1c0,0,0,0,0,0V44.8z M35.2,21.4v-0.3l0.5,0.3H35.2z M37.7,19.9
	h-4.4l1.2,0.7c-0.1,0.1-0.1,0.2-0.1,0.3v0.5h-0.8V21c0-0.2-0.2-0.4-0.4-0.4c-0.2,0-0.4,0.2-0.4,0.4v0.5h-0.8V21
	c0-0.2-0.2-0.4-0.4-0.4c-0.2,0-0.4,0.2-0.4,0.4v0.5h-0.8l-0.5,0.3v-0.5c0-0.2-0.1-0.4-0.3-0.3c-0.2,0.1-0.3,0.3-0.3,0.6V22l-0.6,0.3
	v-0.5c0-0.2-0.1-0.4-0.3-0.3c-0.2,0.1-0.3,0.3-0.3,0.6v0.5l-0.6,0.3v-0.5c0-0.2-0.1-0.4-0.3-0.3c-0.2,0.1-0.3,0.3-0.3,0.6v0.5
	l-0.6,0.3V23c0-0.2-0.1-0.4-0.3-0.3c-0.2,0.1-0.3,0.3-0.3,0.6v0.5L25,24v0.5l5.1-2.6h6.5l1.2,0.7v12.2l1.9,1V25.7
	c0-0.6,0.4-0.9,0.9-0.6c0.5,0.3,0.9,0.9,0.9,1.6v10.2l1.5,0.8v-15L37.7,19.9z M37.7,18h-7.7l2.4,1.4h5.3v0l5.1,2.6v-1.5L37.7,18z
	 M38.3,16.9l5.5,2.9v-1.6l-5.5-2.9V16.9z"/>
<path fill="#D25F15" d="M33.5,2.2c-0.5,0.5-1.2,2-1.3,6.5c-2.4,0-7.4,0.7-7.6,2.6c0.1-1.6,1.8-3.6,3.8-5.5
	C30.7,3.5,32.7,2.5,33.5,2.2L33.5,2.2z M17.4,24.4h-2v7.1l1-0.9l1,0.9V24.4z M50.4,31.6l1-0.9l1,0.9v-7.1h-2V31.6z"/>
</svg>
